<?xml version="1.0" encoding="UTF-8"?>
<svg id="Calque_1" xmlns="http://www.w3.org/2000/svg" viewBox="0 0 179.63 108.87">
  <defs>
    <style>
      .cls-1 {
        fill: #fbd7c8;
      }

      .cls-2 {
        fill: #024333;
      }

      .cls-3 {
        fill: #ee6123;
      }
    </style>
  </defs>
  <rect class="cls-1" x="-654.96" y="-395.12" width="960" height="560"/>
  <g>
    <g>
      <path class="cls-2" d="M18.37,42.45c-.21.04-.42.07-.63.07-.42.03-.88.07-1.05.1-.88.07-1.75.11-2.63.11-2.98,0-8.23-.53-8.23-4.76s-.04-8.37-.04-12.53v-4.31c.04-.7,0-1.37.04-2.06.17-1.44,1.54-1.82,2.84-1.82.77,0,1.99.21,2.48,1.12.14.18.21.46.21.74.04.63,0,1.26-.03,1.89v3.75c0,3.75.03,7.53.03,11.27,0,1.05,2.42,1.08,3.12,1.08,1.22,0,2.41-.21,3.64-.21,1.37,0,1.79,1.89,1.79,2.94,0,.84-.21,2.1-1.05,2.52-.14.04-.35.07-.49.1Z"/>
      <path class="cls-2" d="M28.62,42.59c-5.21,0-7.77-4.55-7.77-8.79s2.7-9.21,8.05-9.21c1.16,0,2.34.25,3.4.84.46-.49,1.02-.81,1.75-.81,1.58,0,3.15,1.47,3.15,2.98v.17c-.14,1.75-.25,3.54-.25,5.29,0,2.14.17,4.17.56,6.23.04.25.07.46.07.7,0,1.71-1.54,2.73-3.15,2.73-.91,0-1.82-.28-2.1-1.19-1.12.67-2.42,1.05-3.71,1.05ZM30.86,33.35c0-1.26-.35-3.29-2-3.29-1.75,0-2.49,2-2.49,3.61s.56,3.47,2.13,3.47c1.68,0,2.35-2.17,2.35-3.78Z"/>
    </g>
    <g>
      <path class="cls-3" d="M13.26,84.95c1.27,0,2.38-.28,3.65-.51.66-.11,1.27-.23,1.94-.34.66-.06,1.33-.17,1.93-.17,1.33,0,2.16.96,2.65,1.87.44,1.02.66,2.21.66,2.94,0,1.75-.66,3.68-2.87,4.07-2.54.51-5.25,1.02-7.85,1.02-10,0-10.89-8.71-10.89-15.89s1.11-14.7,1.82-21.71c.22-2.15,2.21-3.96,4.48-3.96,4.42,0,8.9-.11,13.32-.11,2.27,0,2.71,2.43,2.71,4.24,0,1.7-.72,4.64-2.82,4.64-3.1,0-6.25.06-9.34.11-.33,2.38-.66,4.81-.94,7.29,1.66.06,3.37-.06,5.03-.06.66,0,1.49,0,2.27.11,2.21.17,2.76,2.04,2.76,4.02s-.83,4.69-3.09,4.69h-7.46c0,2.66.17,5.26.99,7.63.39.06.72.11,1.05.11ZM15.47,42.65c.28-.28.55-.68.88-1.02.28-.4.66-.79,1.05-1.08.72-.45,1.55-.68,2.38-.68,2.04,0,3.43,1.7,3.43,3.51,0,.9-.33,1.7-.88,2.32-.72.85-3.21,3.56-4.15,4.07-.55.34-1.16.51-1.82.51-1.99,0-3.54-1.81-3.54-3.62,0-1.36.88-2.38,1.82-3.22.22-.28.55-.51.83-.79Z"/>
      <path class="cls-3" d="M36.37,79.01c0,2.77,1.21,5.03,4.09,5.03,1.05,0,2.21-.4,3.26-.85.88-.34,2.1-.85,3.04-.85,2.65,0,3.26,3,3.26,4.52,0,4.58-6.19,6.16-9.51,6.16-7.96,0-12.93-7.24-12.93-14.19s5.42-14.87,13.54-14.87c3.92,0,6.96,2.26,7.96,5.94.05.34.17.73.17,1.13,0,2.71-2.54,4.41-5.03,4.41-1.93,0-3.1-1.02-3.43-2.54-2.71.79-4.42,3.34-4.42,6.11Z"/>
      <path class="cls-3" d="M52.4,78.73c0-4.86,2.04-9.33,6.13-12.27,2.27-1.64,5.3-2.26,8.01-2.26,8.29,0,13.37,6.56,13.37,14.08s-5.36,14.93-13.93,14.93-13.6-6.9-13.6-14.48ZM71.13,78.22c0-3.05-1.55-5.26-4.7-5.26-3.43,0-5.3,2.54-5.3,5.88,0,3.05,1.71,5.54,4.92,5.54,3.43,0,5.08-2.94,5.08-6.16Z"/>
      <path class="cls-3" d="M93.96,93.66c-1.77,0-3.76-.73-5.08-1.75-5.36-4.02-6.19-11.65-6.19-17.47,0-2.43.06-6.11.39-8.54.28-1.98,3.21-2.26,4.75-2.26,1.38,0,4.14.4,4.14,2.26,0,.96-.11,1.92-.17,2.83-.11,1.81-.17,3.62-.17,5.43,0,2.49.06,7.07,1.27,8.93.55.79,1.49,1.19,2.6,1.19,2.93,0,4.48-2.32,5.47-5.03.06-.23.17-.51.28-.79.05-.28.11-.51.11-.68v-1.92c0-3.28.17-6.56.66-9.78.28-1.81,1.82-2.54,3.43-2.54,2.16,0,5.08,1.53,5.08,4.19v.4c-.39,2.38-.61,4.69-.61,7.01,0,4.47.66,8.76,1.44,13.12.06.34.11.68.11,1.02,0,2.49-1.82,4.41-4.42,4.41s-3.7-1.53-4.31-3.79c-.05-.23-.11-.45-.17-.68-2.04,2.43-5.14,4.47-8.62,4.47Z"/>
      <path class="cls-3" d="M116.24,90.66c0-3.11-.11-6.22-.22-9.33-.11-5.49-.22-11.03-.22-16.57,0-.96-.05-3,0-4.98.06-2.04.17-4.07.39-4.98.17-.57.39-1.08.88-1.58.83-.74,1.99-.96,2.93-.96,2.04,0,4.7.96,4.86,3.56.05.85,0,1.7-.05,2.54v5.54c0,8.88.17,17.76.17,26.63,0,2.21-2.82,2.83-4.53,2.83-.72,0-1.77-.11-2.6-.51-.88-.34-1.6-1.07-1.6-2.21Z"/>
    </g>
    <path class="cls-2" d="M145.04,54.88v-1l5-2s1-1.08,0-1c-9.4.71,1.36.15-8.08.15s-17.08-7.64-17.08-17.07,7.15-16.54,16.15-17.03v-8.03c-13.85.27-25,11.57-25,25.49s11.92,25.5,26,25.5c5,0-.2.3,4-8l-1,3Z"/>
    <g>
      <path class="cls-3" d="M42.45,44.13c-.34-1.57-.39-3.25-.5-4.87-.22-3.25-.34-6.5-.34-9.74,0-4.09.17-8.23.56-12.32.17-2.52.45-7.17,2.52-8.62,1.34-1.06,4.2-1.12,5.66-1.12,12.1,0,20.05,8.29,20.05,19.54,0,12.15-9.07,21.17-22.01,21.17-1.46,0-3.19,0-4.37-1.01-.84-.78-1.34-2.07-1.57-3.02ZM61.27,26.49c0-5.49-4.59-8.4-10.08-8.62-.5,3.47-.84,7.06-.84,10.64,0,3.02.22,6.1.39,9.13,5.82-1.01,10.53-5.38,10.53-11.14Z"/>
      <path class="cls-3" d="M84.95,48.55c-1.79,0-3.81-.73-5.15-1.74-5.43-3.98-6.27-11.54-6.27-17.3,0-2.41.06-6.05.39-8.46.28-1.96,3.25-2.24,4.82-2.24,1.4,0,4.2.39,4.2,2.24,0,.95-.11,1.9-.17,2.8-.11,1.79-.17,3.58-.17,5.38,0,2.46.06,7,1.29,8.85.56.78,1.51,1.18,2.63,1.18,2.97,0,4.54-2.3,5.54-4.98.06-.22.17-.5.28-.78.06-.28.11-.5.11-.67v-1.9c0-3.25.17-6.5.67-9.69.28-1.79,1.85-2.52,3.47-2.52,2.18,0,5.15,1.51,5.15,4.14v.39c-.39,2.35-.62,4.65-.62,6.94,0,4.42.67,8.68,1.46,12.99.06.34.11.67.11,1.01,0,2.46-1.85,4.37-4.48,4.37s-3.75-1.51-4.37-3.75c-.06-.22-.11-.45-.17-.67-2.07,2.41-5.21,4.42-8.74,4.42Z"/>
      <path class="cls-3" d="M122.98,18.87c2.8,0,3.53,2.91,3.53,4.7,0,1.57-.56,3.98-2.97,4.31-2.24.22-5.1.56-6.72,2.3-.5.56-1.51,2.74-1.57,3.42-.17,3.92-.11,7.78-.11,11.7,0,2.24-2.3,3.02-4.2,3.02-1.57,0-4.65-.62-4.65-3.08,0-5.49.17-10.92.17-16.41,0-2.35-.06-4.82-.06-7.17,0-2.18,2.63-2.74,4.37-2.74,1.12,0,3.14.22,4.03,1.51.34.39.45.9.45,1.34,2.13-1.62,4.93-2.91,7.73-2.91Z"/>
      <path class="cls-3" d="M141.29,38.98c2.35-.5,4.42-1.62,6.55-1.62,2.41,0,3.3,2.52,3.3,4.48,0,4.48-6.05,6.1-9.63,6.1-7.73,0-13.1-6.78-13.1-14.06s5.88-14.78,13.78-14.78c4.93,0,8.34,3.64,8.34,8.4,0,5.94-5.82,8.96-10.98,10.58-1.01.34-.28,1.29,1.74.9ZM137.09,12.38c1.4-1.51,2.86-2.97,4.31-4.48.39-.39.73-.84,1.12-1.23.45-.45.9-.84,1.4-1.23.67-.45,1.46-.84,2.41-.84,2.07,0,3.58,1.68,3.58,3.53,0,1.06-.39,2.07-1.34,2.74-1.01.84-2.02,1.85-3.02,2.91-1.01,1.12-1.96,2.18-2.97,3.25-.67.73-1.68,1.18-2.8,1.18-2.13,0-3.53-1.68-3.53-3.47,0-.9.28-1.68.84-2.35ZM143.25,28.39c0-.5-.28-.56-.73-.56-2.69,0-4.65,2.24-5.1,4.76,1.74-.39,5.82-2.13,5.82-4.2Z"/>
      <path class="cls-3" d="M166.94,38.98c2.35-.5,4.42-1.62,6.55-1.62,2.41,0,3.3,2.52,3.3,4.48,0,4.48-6.05,6.1-9.63,6.1-7.73,0-13.1-6.78-13.1-14.06s5.88-14.78,13.78-14.78c4.93,0,8.34,3.64,8.34,8.4,0,5.94-5.82,8.96-10.98,10.58-1.01.34-.28,1.29,1.74.9ZM168.9,28.39c0-.5-.28-.56-.73-.56-2.69,0-4.65,2.24-5.1,4.76,1.74-.39,5.82-2.13,5.82-4.2Z"/>
    </g>
    <g>
      <path class="cls-2" d="M41.49,56.63c1.47-.32,2.77-1.01,4.1-1.01,1.51,0,2.07,1.57,2.07,2.8,0,2.8-3.78,3.82-6.02,3.82-4.83,0-8.19-4.24-8.19-8.79s3.68-9.24,8.61-9.24c3.08,0,5.22,2.28,5.22,5.25,0,3.71-3.64,5.6-6.86,6.62-.63.21-.18.8,1.08.56ZM42.71,50.02c0-.31-.17-.35-.46-.35-1.68,0-2.91,1.4-3.18,2.98,1.08-.25,3.64-1.33,3.64-2.63Z"/>
      <path class="cls-2" d="M51.57,55.76c.94,0,3.74,1.71,4.94,1.71.31,0,.52-.14.52-.49,0-1.47-6.72-1.89-6.72-7.42,0-3.19,2.52-5.56,5.71-5.56,2.06,0,6.3,1.57,6.3,4.09,0,1.3-1.09,2.52-2.45,2.52-.77,0-2.77-1.51-3.64-1.51-.24,0-.42.14-.42.49,0,1.58,6.69,1.93,6.69,7.07,0,3.6-3.12,5.92-6.58,5.92-2.35,0-6.72-1.47-6.72-4.34,0-1.16,1.26-2.49,2.38-2.49Z"/>
      <path class="cls-2" d="M63.99,47.99c0-1.16.56-2.24,1.75-2.45h.38c0-1.15.04-3.46.21-4.23.28-1.23,1.68-1.65,2.66-1.65,1.15,0,2.9.63,2.9,2.17,0,.35-.07.67-.1,1.01-.1.84-.1,1.75-.14,2.59,1.54.07,3.01.42,3.01,2.31,0,.49-.11.95-.31,1.33-.46.98-1.72,1.02-2.66,1.02,0,1.54-.04,3.15.14,4.66.1.88.38,2.31,1.54,2.31.35,0,.67-.14.95-.32.17-.1.31-.17.49-.24.14-.07.31-.18.52-.18,1.4,0,2.35,2.45,2.35,3.61,0,1.09-.39,1.37-1.26,1.82-.49.21-.95.42-1.4.56-.46.14-.98.21-1.57.21-4.48,0-6.72-3.57-7.14-7.6-.18-1.61-.18-3.29-.18-4.79-1.44-.04-2.13-.7-2.13-2.13Z"/>
    </g>
    <g>
      <path class="cls-3" d="M143.2,83.33c2.32-.51,4.37-1.64,6.47-1.64,2.38,0,3.26,2.54,3.26,4.52,0,4.52-5.97,6.16-9.51,6.16-7.63,0-12.93-6.84-12.93-14.19s5.8-14.93,13.6-14.93c4.86,0,8.24,3.68,8.24,8.48,0,5.99-5.75,9.05-10.83,10.69-.99.34-.28,1.3,1.71.91ZM139.06,56.47c1.38-1.53,2.82-3,4.26-4.52.39-.4.72-.85,1.11-1.24.44-.45.88-.85,1.38-1.24.66-.45,1.44-.85,2.38-.85,2.04,0,3.54,1.7,3.54,3.56,0,1.07-.39,2.09-1.33,2.77-1,.85-1.99,1.87-2.98,2.94-1,1.13-1.93,2.21-2.93,3.28-.66.74-1.66,1.19-2.76,1.19-2.1,0-3.48-1.7-3.48-3.51,0-.9.28-1.7.83-2.38ZM145.14,72.65c0-.51-.28-.57-.72-.57-2.65,0-4.59,2.26-5.03,4.81,1.71-.4,5.75-2.15,5.75-4.24Z"/>
      <path class="cls-3" d="M168.52,83.33c2.32-.51,4.37-1.64,6.47-1.64,2.38,0,3.26,2.54,3.26,4.52,0,4.52-5.97,6.16-9.51,6.16-7.63,0-12.93-6.84-12.93-14.19s5.8-14.93,13.6-14.93c4.86,0,8.24,3.68,8.24,8.48,0,5.99-5.75,9.05-10.83,10.69-.99.34-.28,1.3,1.71.91ZM170.45,72.65c0-.51-.28-.57-.72-.57-2.65,0-4.59,2.26-5.03,4.81,1.71-.4,5.75-2.15,5.75-4.24Z"/>
    </g>
  </g>
</svg>